<svg width="10" height="6" viewBox="0 0 10 6" fill="none" xmlns="http://www.w3.org/2000/svg">
<path d="M5.07497 5.5574C5.21893 5.54054 5.3529 5.47531 5.45497 5.3724L9.29498 1.53241C9.35441 1.47266 9.40149 1.40179 9.43353 1.32384C9.46558 1.24589 9.48195 1.1624 9.48172 1.07812C9.48149 0.993845 9.46467 0.910438 9.43221 0.832665C9.39974 0.754892 9.35227 0.684276 9.29252 0.624848C9.23276 0.56542 9.16187 0.518344 9.08392 0.48631C9.00597 0.454276 8.92248 0.43791 8.8382 0.438147C8.75393 0.438385 8.67052 0.455221 8.59275 0.487693C8.51498 0.520166 8.44437 0.567639 8.38495 0.627403L4.99996 4.0124L1.61496 0.627403C1.55554 0.567639 1.48493 0.520166 1.40717 0.487693C1.3294 0.455221 1.24598 0.438385 1.16171 0.438147C1.07743 0.43791 0.993935 0.454276 0.915984 0.48631C0.838033 0.518344 0.767157 0.56542 0.7074 0.624848C0.647643 0.684276 0.600176 0.754892 0.567712 0.832665C0.535248 0.910438 0.518419 0.993845 0.518191 1.07812C0.517963 1.1624 0.534341 1.24589 0.566384 1.32384C0.598427 1.40179 0.645514 1.47266 0.704949 1.53241L4.54495 5.3724C4.61343 5.44149 4.69675 5.49405 4.78859 5.52611C4.88043 5.55816 4.97837 5.56886 5.07497 5.5574Z" fill="#262626"/>
</svg>
